<svg xmlns="http://www.w3.org/2000/svg" version="1.1" xmlns:xlink="http://www.w3.org/1999/xlink" xmlns:svgjs="http://svgjs.dev/svgjs" width="1000" height="207" viewBox="0 0 1000 207"><g transform="matrix(1,0,0,1,-0.6056348047761162,0.5553024216324474)"><svg viewBox="0 0 396 82" data-background-color="#333366" preserveAspectRatio="xMidYMid meet" height="207" width="1000" xmlns="http://www.w3.org/2000/svg" xmlns:xlink="http://www.w3.org/1999/xlink"><defs></defs><g id="tight-bounds" transform="matrix(1,0,0,1,0.24008861730862918,-0.21994455431311621)"><svg viewBox="0 0 395.52 82.43960528768426" height="82.43960528768426" width="395.52"><g><svg viewBox="0 0 395.52 82.43960528768426" height="82.43960528768426" width="395.52"><g><svg viewBox="0 0 395.52 82.43960528768426" height="82.43960528768426" width="395.52"><g><svg viewBox="0 0 395.52 82.43960528768426" height="82.43960528768426" width="395.52"><g><svg viewBox="0 0 395.52 82.43960528768426" height="82.43960528768426" width="395.52"><path d="M394.594 17.682C392.735 9.125 387.435 6.746 387.435 6.746 371.165-2.068 350.86-0.169 332.619 1.098 300.414 1.149 268.339 3.032 236.208 4.042 168.767 4.196 100.749 1.663 33.643 7.909 27.339 9.826-6.54 8.286 1.121 18.777 3.129 23.141 10.456 27.985 10.232 31.989 11.236 32.691 12.631 31.082 13.226 32.092 15.309 34.813 18.711 33.53 21.501 35.138 17.614 39.434 20.403 43.011 23.062 46.759 18.377 47.735 12.371 47.273 9.675 50.507 9.396 52.852 7.89 52.407 6.235 52.304 5.026 52.236 2.59 52.492 2.999 53.228 4.394 55.744-1.594 57.199 2.162 59.663-0.422 62.333 3.948 64.644 3.353 67.536 3.278 68.118 3.687 68.614 4.338 68.751 7.22 69.487 3.018 70.925 3.464 72.482 33.029 83.127 65.104 75.768 95.394 80.663 103.259 77.24 97.346 81.878 100.489 81.159 102.943 80.32 104.728 83.795 107.499 81.827 107.927 81.262 107.276 79.927 108.8 80.184 109.6 80.32 110.307 80.286 110.418 79.499 110.586 78.318 109.117 79.054 108.726 78.438 112.947 75.323 111.906 82.734 115.866 82.426 115.68 81.518 114.528 80.218 116.889 80.389 119.232 79.088 119.306 78.01 121.389 80.937 121.463 81.57 121.835 82.015 122.43 82.323 128.938 79.14 135.409 83.452 142.233 82.015 146.417 80.44 150.433 82.87 154.672 82.271 156.16 81.792 157.666 80.937 159.098 82.374 176.632 82.682 195.319 81.399 211.943 82.426 256.364 80.509 303.835 83.213 350.674 80.68 361.719 79.704 373.192 78.318 383.958 77.206 383.958 77.206 392.679 74.159 392.679 60.468S394.538 48.488 394.817 37.586C395.096 26.684 396.398 26.239 394.538 17.682Z" opacity="1" fill="#ffffff" data-fill-palette-color="tertiary"></path><g transform="matrix(1,0,0,1,55.76832,26.230666666666668)"><svg width="283.98335999999995" viewBox="1.5 -36 350.4800109863281 37" height="29.97827195435092" data-palette-color="#333366"><path d="M36-9.25L36-9.25Q36-7.1 35.1-5.23 34.2-3.35 32.18-1.98 30.15-0.6 26.93 0.2 23.7 1 19 1L19 1Q16.35 1 13.83 0.6 11.3 0.2 9.03-0.55 6.75-1.3 4.83-2.38 2.9-3.45 1.5-4.75L1.5-4.75 4-7.75Q6.85-5.3 10.65-4.03 14.45-2.75 19-2.75L19-2.75Q24.05-2.75 26.15-4.15 28.25-5.55 28.25-8L28.25-8Q28.25-9.9 26.6-11.2 24.95-12.5 21-13.75L21-13.75 11.5-16.75Q6.8-18.25 4.4-20.58 2-22.9 2-26.5L2-26.5Q2-28.35 2.88-30.08 3.75-31.8 5.6-33.13 7.45-34.45 10.33-35.23 13.2-36 17.25-36L17.25-36Q19.7-36 22.13-35.6 24.55-35.2 26.78-34.45 29-33.7 30.93-32.63 32.85-31.55 34.25-30.25L34.25-30.25 31.75-27.25Q28.9-29.7 25.35-30.98 21.8-32.25 17.25-32.25L17.25-32.25Q13.5-32.25 11.63-30.95 9.75-29.65 9.75-27.75L9.75-27.75Q9.75-26.7 10.1-25.93 10.45-25.15 11.28-24.48 12.1-23.8 13.45-23.23 14.8-22.65 16.8-22L16.8-22 26.25-19Q30.8-17.55 33.4-15.2 36-12.85 36-9.25ZM61.5-32.5L70-32.5 77.8-4.75 78.3-4.75 86.75-35 94-35 84.25 0 73.5 0 66-26.75 65.5-26.75 58 0 47.25 0 37.5-35 44.75-35 53.2-4.75 53.7-4.75 61.5-32.5ZM112.25-30.75L104.75-12.25 120.25-12.25 112.75-30.75 112.25-30.75ZM106.75-35L118.25-35 132.5 0 125.3 0 122-8.5 103-8.5 99.7 0 92.5 0 106.75-35ZM136.49-35L154.49-35Q158.24-35 161.22-34.18 164.19-33.35 166.24-31.78 168.29-30.2 169.39-27.93 170.49-25.65 170.49-22.75L170.49-22.75Q170.49-19.85 169.39-17.57 168.29-15.3 166.24-13.73 164.19-12.15 161.22-11.33 158.24-10.5 154.49-10.5L154.49-10.5 143.74-10.5 143.74 0 136.49 0 136.49-35ZM154.49-31.25L143.74-31.25 143.74-14.25 154.49-14.25Q158.44-14.25 160.62-16.32 162.79-18.4 162.79-22.75L162.79-22.75Q162.79-27.1 160.62-29.18 158.44-31.25 154.49-31.25L154.49-31.25ZM225.99-9.25L225.99-9.25Q225.99-7.1 225.09-5.23 224.19-3.35 222.16-1.98 220.14-0.6 216.91 0.2 213.69 1 208.99 1L208.99 1Q206.34 1 203.81 0.6 201.29 0.2 199.01-0.55 196.74-1.3 194.81-2.38 192.89-3.45 191.49-4.75L191.49-4.75 193.99-7.75Q196.84-5.3 200.64-4.03 204.44-2.75 208.99-2.75L208.99-2.75Q214.04-2.75 216.14-4.15 218.24-5.55 218.24-8L218.24-8Q218.24-9.9 216.59-11.2 214.94-12.5 210.99-13.75L210.99-13.75 201.49-16.75Q196.79-18.25 194.39-20.58 191.99-22.9 191.99-26.5L191.99-26.5Q191.99-28.35 192.86-30.08 193.74-31.8 195.59-33.13 197.44-34.45 200.31-35.23 203.19-36 207.24-36L207.24-36Q209.69-36 212.11-35.6 214.54-35.2 216.76-34.45 218.99-33.7 220.91-32.63 222.84-31.55 224.24-30.25L224.24-30.25 221.74-27.25Q218.89-29.7 215.34-30.98 211.79-32.25 207.24-32.25L207.24-32.25Q203.49-32.25 201.61-30.95 199.74-29.65 199.74-27.75L199.74-27.75Q199.74-26.7 200.09-25.93 200.44-25.15 201.26-24.48 202.09-23.8 203.44-23.23 204.79-22.65 206.79-22L206.79-22 216.24-19Q220.79-17.55 223.39-15.2 225.99-12.85 225.99-9.25ZM258.74-35L265.99-35 265.99 0 258.74 0 258.74-15.25 238.24-15.25 238.24 0 230.99 0 230.99-35 238.24-35 238.24-19 258.74-19 258.74-35ZM291.98-32.5L291.98-32.5Q289.43-32.5 287.21-31.6 284.98-30.7 283.33-28.85 281.68-27 280.71-24.18 279.73-21.35 279.73-17.5L279.73-17.5Q279.73-13.65 280.71-10.83 281.68-8 283.33-6.15 284.98-4.3 287.21-3.4 289.43-2.5 291.98-2.5L291.98-2.5Q294.53-2.5 296.76-3.4 298.98-4.3 300.63-6.15 302.28-8 303.26-10.83 304.23-13.65 304.23-17.5L304.23-17.5Q304.23-21.35 303.26-24.18 302.28-27 300.63-28.85 298.98-30.7 296.76-31.6 294.53-32.5 291.98-32.5ZM291.98-36L291.98-36Q296.48-36 300.16-34.8 303.83-33.6 306.46-31.25 309.08-28.9 310.53-25.45 311.98-22 311.98-17.5L311.98-17.5Q311.98-13 310.53-9.55 309.08-6.1 306.46-3.75 303.83-1.4 300.16-0.2 296.48 1 291.98 1L291.98 1Q287.48 1 283.78-0.2 280.08-1.4 277.46-3.75 274.83-6.1 273.41-9.55 271.98-13 271.98-17.5L271.98-17.5Q271.98-22 273.41-25.45 274.83-28.9 277.46-31.25 280.08-33.6 283.78-34.8 287.48-36 291.98-36ZM317.98-35L335.98-35Q339.73-35 342.71-34.18 345.68-33.35 347.73-31.78 349.78-30.2 350.88-27.93 351.98-25.65 351.98-22.75L351.98-22.75Q351.98-19.85 350.88-17.57 349.78-15.3 347.73-13.73 345.68-12.15 342.71-11.33 339.73-10.5 335.98-10.5L335.98-10.5 325.23-10.5 325.23 0 317.98 0 317.98-35ZM335.98-31.25L325.23-31.25 325.23-14.25 335.98-14.25Q339.93-14.25 342.11-16.32 344.28-18.4 344.28-22.75L344.28-22.75Q344.28-27.1 342.11-29.18 339.93-31.25 335.98-31.25L335.98-31.25Z" opacity="1" transform="matrix(1,0,0,1,0,0)" fill="#333366" class="undefined-text-0" data-fill-palette-color="quaternary" id="text-0"></path></svg></g></svg></g></svg></g></svg></g><g></g></svg></g></svg><rect width="395.52" height="82.43960528768426" fill="none" stroke="none" visibility="hidden"></rect></g></svg></g></svg>